<svg width="722" height="800" viewBox="0 0 722 800" fill="none" xmlns="http://www.w3.org/2000/svg">
<path d="M263.2 776.6C257.867 786.2 251.2 792.333 243.2 795C235.733 798.2 228 798.733 220 796.6C212.533 795 206.133 791.267 200.8 785.4C195.467 780.067 192.267 773.4 191.2 765.4C190.133 756.867 192.267 747.8 197.6 738.2L492.8 226.2C498.133 216.6 504.533 210.2 512 207C520 203.8 527.733 203.267 535.2 205.4C542.667 207 549.067 210.733 554.4 216.6C559.733 222.467 562.933 229.667 564 238.2C565.6 246.2 563.733 254.733 558.4 263.8L263.2 776.6ZM177.6 555.8C132.8 555.8 97.8667 540.333 72.8 509.4C47.7333 478.467 35.2 436.333 35.2 383C35.2 347.267 40.8 316.6 52 291C63.2 265.4 79.4667 245.667 100.8 231.8C122.133 217.933 147.733 211 177.6 211C222.4 211 257.333 226.467 282.4 257.4C307.467 287.8 320 329.667 320 383C320 418.733 314.4 449.667 303.2 475.8C292 501.4 275.733 521.133 254.4 535C233.067 548.867 207.467 555.8 177.6 555.8ZM177.6 488.6C190.4 488.6 201.333 484.867 210.4 477.4C219.467 469.4 226.4 457.667 231.2 442.2C236 426.733 238.4 407 238.4 383C238.4 347.267 233.067 320.867 222.4 303.8C211.733 286.733 196.8 278.2 177.6 278.2C164.8 278.2 153.867 281.933 144.8 289.4C135.733 296.867 128.8 308.333 124 323.8C119.2 339.267 116.8 359 116.8 383C116.8 419.267 122.133 445.933 132.8 463C143.467 480.067 158.4 488.6 177.6 488.6ZM579.2 791C534.4 791 499.467 775.533 474.4 744.6C449.333 713.667 436.8 671.533 436.8 618.2C436.8 582.467 442.4 551.8 453.6 526.2C464.8 500.6 481.067 480.867 502.4 467C523.733 453.133 549.333 446.2 579.2 446.2C624 446.2 658.933 461.667 684 492.6C709.067 523 721.6 564.867 721.6 618.2C721.6 653.933 716 684.867 704.8 711C693.6 736.6 677.333 756.333 656 770.2C634.667 784.067 609.067 791 579.2 791ZM579.2 723.8C592 723.8 602.933 720.067 612 712.6C621.067 705.133 628 693.667 632.8 678.2C637.6 662.2 640 642.2 640 618.2C640 582.467 634.667 556.067 624 539C613.333 521.933 598.4 513.4 579.2 513.4C566.4 513.4 555.467 517.133 546.4 524.6C537.333 532.067 530.4 543.533 525.6 559C520.8 574.467 518.4 594.2 518.4 618.2C518.4 654.467 523.733 681.133 534.4 698.2C545.067 715.267 560 723.8 579.2 723.8Z" fill="black"/>
</svg>
