<svg width="687" height="598" viewBox="0 0 687 598" fill="none" xmlns="http://www.w3.org/2000/svg">
<path d="M228.2 574.6C222.867 584.2 216.2 590.333 208.2 593C200.733 596.2 193 596.733 185 594.6C177.533 593 171.133 589.267 165.8 583.4C160.467 578.067 157.267 571.4 156.2 563.4C155.133 554.867 157.267 545.8 162.6 536.2L457.8 24.2C463.133 14.6 469.533 8.19997 477 4.99998C485 1.79999 492.733 1.26664 500.2 3.39995C507.667 4.99996 514.067 8.73331 519.4 14.6C524.733 20.4667 527.933 27.6666 529 36.2C530.6 44.2 528.733 52.7333 523.4 61.8L228.2 574.6ZM142.6 353.8C97.8 353.8 62.8667 338.333 37.8 307.4C12.7333 276.467 0.200003 234.333 0.200003 181C0.200003 145.267 5.8 114.6 17 89C28.2 63.4 44.4667 43.6666 65.8 29.8C87.1333 15.9333 112.733 8.99997 142.6 8.99997C187.4 8.99997 222.333 24.4666 247.4 55.4C272.467 85.8 285 127.667 285 181C285 216.733 279.4 247.667 268.2 273.8C257 299.4 240.733 319.133 219.4 333C198.067 346.867 172.467 353.8 142.6 353.8ZM142.6 286.6C155.4 286.6 166.333 282.867 175.4 275.4C184.467 267.4 191.4 255.667 196.2 240.2C201 224.733 203.4 205 203.4 181C203.4 145.267 198.067 118.867 187.4 101.8C176.733 84.7333 161.8 76.2 142.6 76.2C129.8 76.2 118.867 79.9333 109.8 87.4C100.733 94.8666 93.8 106.333 89 121.8C84.2 137.267 81.8 157 81.8 181C81.8 217.267 87.1333 243.933 97.8 261C108.467 278.067 123.4 286.6 142.6 286.6ZM544.2 589C499.4 589 464.467 573.533 439.4 542.6C414.333 511.667 401.8 469.533 401.8 416.2C401.8 380.467 407.4 349.8 418.6 324.2C429.8 298.6 446.067 278.867 467.4 265C488.733 251.133 514.333 244.2 544.2 244.2C589 244.2 623.933 259.667 649 290.6C674.067 321 686.6 362.867 686.6 416.2C686.6 451.933 681 482.867 669.8 509C658.6 534.6 642.333 554.333 621 568.2C599.667 582.067 574.067 589 544.2 589ZM544.2 521.8C557 521.8 567.933 518.067 577 510.6C586.067 503.133 593 491.667 597.8 476.2C602.6 460.2 605 440.2 605 416.2C605 380.467 599.667 354.067 589 337C578.333 319.933 563.4 311.4 544.2 311.4C531.4 311.4 520.467 315.133 511.4 322.6C502.333 330.067 495.4 341.533 490.6 357C485.8 372.467 483.4 392.2 483.4 416.2C483.4 452.467 488.733 479.133 499.4 496.2C510.067 513.267 525 521.8 544.2 521.8Z" fill="white"/>
</svg>
